<svg width="116" height="50" viewBox="0 0 116 50" fill="none" xmlns="http://www.w3.org/2000/svg">
<path d="M20.0497 13.0407H35.6814V14.2831H21.4826V23.6341H34.8347V24.8765H21.4826V35.1429H35.8442V36.3854H20.0497V13.0407ZM37.0818 13.0407H38.7426L46.1026 23.3071L53.6253 13.0407L63.8576 0L47.047 24.3861L55.7096 36.3854H53.9836L46.1026 25.465L38.189 36.3854H36.4956L45.2233 24.3861L37.0818 13.0407ZM56.3283 14.2831V13.0407H74.142V14.2831H65.9353V36.3854H64.5024V14.2831H56.3283ZM0.493713 13.0407H2.28485L26.9836 50L16.7768 36.3854L1.99176 14.8063L1.92662 36.3854H0.493713V13.0407Z" fill="black"/>
<path d="M76.655 36.3854V13.0407H78.0879V36.3854H76.655Z" fill="black"/>
<path d="M80.5118 13.0407H96.1435V14.2831H81.9447V23.6341H95.2968V24.8765H81.9447V36.3854H80.5118V13.0407Z" fill="black"/>
<path d="M97.5438 13.0407H99.2047L106.565 23.3071L113.925 13.0407H115.585L107.444 24.3861V36.3854H105.685V24.3861L97.5438 13.0407Z" fill="black"/>
</svg>
